<svg width="33" height="32" viewBox="0 0 33 32" fill="none" xmlns="http://www.w3.org/2000/svg">
<rect y="0.421021" width="32.0171" height="30.3611" rx="5.5202" fill="#0A2A66"/>
<path d="M23.7367 15.0496C23.7367 19.4702 20.1531 23.0539 15.7324 23.0539C11.3118 23.0539 7.72815 19.4702 7.72815 15.0496C7.72815 10.6289 11.3118 7.04529 15.7324 7.04529C20.1531 7.04529 23.7367 10.6289 23.7367 15.0496ZM11.3609 15.0496C11.3609 17.4639 13.3181 19.4211 15.7324 19.4211C18.1468 19.4211 20.104 17.4639 20.104 15.0496C20.104 12.6352 18.1468 10.678 15.7324 10.678C13.3181 10.678 11.3609 12.6352 11.3609 15.0496Z" fill="white"/>
<rect x="20.4247" y="23.0756" width="3.33473" height="11.4361" transform="rotate(-41.9645 20.4247 23.0756)" fill="white"/>
</svg>
